G75*
G70*
%OFA0B0*%
%FSLAX24Y24*%
%IPPOS*%
%LPD*%
%AMOC8*
5,1,8,0,0,1.08239X$1,22.5*
%
%ADD10C,0.0000*%
D10*
X005055Y003903D02*
X005055Y016420D01*
X012104Y016420D01*
X012104Y003903D01*
X005055Y003903D01*
X009129Y006542D02*
X009131Y006573D01*
X009137Y006604D01*
X009146Y006634D01*
X009159Y006663D01*
X009176Y006690D01*
X009196Y006714D01*
X009218Y006736D01*
X009244Y006755D01*
X009271Y006771D01*
X009300Y006783D01*
X009330Y006792D01*
X009361Y006797D01*
X009393Y006798D01*
X009424Y006795D01*
X009455Y006788D01*
X009485Y006778D01*
X009513Y006764D01*
X009539Y006746D01*
X009563Y006726D01*
X009584Y006702D01*
X009603Y006677D01*
X009618Y006649D01*
X009629Y006620D01*
X009637Y006589D01*
X009641Y006558D01*
X009641Y006526D01*
X009637Y006495D01*
X009629Y006464D01*
X009618Y006435D01*
X009603Y006407D01*
X009584Y006382D01*
X009563Y006358D01*
X009539Y006338D01*
X009513Y006320D01*
X009485Y006306D01*
X009455Y006296D01*
X009424Y006289D01*
X009393Y006286D01*
X009361Y006287D01*
X009330Y006292D01*
X009300Y006301D01*
X009271Y006313D01*
X009244Y006329D01*
X009218Y006348D01*
X009196Y006370D01*
X009176Y006394D01*
X009159Y006421D01*
X009146Y006450D01*
X009137Y006480D01*
X009131Y006511D01*
X009129Y006542D01*
X011885Y006542D02*
X011887Y006573D01*
X011893Y006604D01*
X011902Y006634D01*
X011915Y006663D01*
X011932Y006690D01*
X011952Y006714D01*
X011974Y006736D01*
X012000Y006755D01*
X012027Y006771D01*
X012056Y006783D01*
X012086Y006792D01*
X012117Y006797D01*
X012149Y006798D01*
X012180Y006795D01*
X012211Y006788D01*
X012241Y006778D01*
X012269Y006764D01*
X012295Y006746D01*
X012319Y006726D01*
X012340Y006702D01*
X012359Y006677D01*
X012374Y006649D01*
X012385Y006620D01*
X012393Y006589D01*
X012397Y006558D01*
X012397Y006526D01*
X012393Y006495D01*
X012385Y006464D01*
X012374Y006435D01*
X012359Y006407D01*
X012340Y006382D01*
X012319Y006358D01*
X012295Y006338D01*
X012269Y006320D01*
X012241Y006306D01*
X012211Y006296D01*
X012180Y006289D01*
X012149Y006286D01*
X012117Y006287D01*
X012086Y006292D01*
X012056Y006301D01*
X012027Y006313D01*
X012000Y006329D01*
X011974Y006348D01*
X011952Y006370D01*
X011932Y006394D01*
X011915Y006421D01*
X011902Y006450D01*
X011893Y006480D01*
X011887Y006511D01*
X011885Y006542D01*
X011885Y010196D02*
X011887Y010227D01*
X011893Y010258D01*
X011902Y010288D01*
X011915Y010317D01*
X011932Y010344D01*
X011952Y010368D01*
X011974Y010390D01*
X012000Y010409D01*
X012027Y010425D01*
X012056Y010437D01*
X012086Y010446D01*
X012117Y010451D01*
X012149Y010452D01*
X012180Y010449D01*
X012211Y010442D01*
X012241Y010432D01*
X012269Y010418D01*
X012295Y010400D01*
X012319Y010380D01*
X012340Y010356D01*
X012359Y010331D01*
X012374Y010303D01*
X012385Y010274D01*
X012393Y010243D01*
X012397Y010212D01*
X012397Y010180D01*
X012393Y010149D01*
X012385Y010118D01*
X012374Y010089D01*
X012359Y010061D01*
X012340Y010036D01*
X012319Y010012D01*
X012295Y009992D01*
X012269Y009974D01*
X012241Y009960D01*
X012211Y009950D01*
X012180Y009943D01*
X012149Y009940D01*
X012117Y009941D01*
X012086Y009946D01*
X012056Y009955D01*
X012027Y009967D01*
X012000Y009983D01*
X011974Y010002D01*
X011952Y010024D01*
X011932Y010048D01*
X011915Y010075D01*
X011902Y010104D01*
X011893Y010134D01*
X011887Y010165D01*
X011885Y010196D01*
X009129Y010196D02*
X009131Y010227D01*
X009137Y010258D01*
X009146Y010288D01*
X009159Y010317D01*
X009176Y010344D01*
X009196Y010368D01*
X009218Y010390D01*
X009244Y010409D01*
X009271Y010425D01*
X009300Y010437D01*
X009330Y010446D01*
X009361Y010451D01*
X009393Y010452D01*
X009424Y010449D01*
X009455Y010442D01*
X009485Y010432D01*
X009513Y010418D01*
X009539Y010400D01*
X009563Y010380D01*
X009584Y010356D01*
X009603Y010331D01*
X009618Y010303D01*
X009629Y010274D01*
X009637Y010243D01*
X009641Y010212D01*
X009641Y010180D01*
X009637Y010149D01*
X009629Y010118D01*
X009618Y010089D01*
X009603Y010061D01*
X009584Y010036D01*
X009563Y010012D01*
X009539Y009992D01*
X009513Y009974D01*
X009485Y009960D01*
X009455Y009950D01*
X009424Y009943D01*
X009393Y009940D01*
X009361Y009941D01*
X009330Y009946D01*
X009300Y009955D01*
X009271Y009967D01*
X009244Y009983D01*
X009218Y010002D01*
X009196Y010024D01*
X009176Y010048D01*
X009159Y010075D01*
X009146Y010104D01*
X009137Y010134D01*
X009131Y010165D01*
X009129Y010196D01*
X009129Y013936D02*
X009131Y013967D01*
X009137Y013998D01*
X009146Y014028D01*
X009159Y014057D01*
X009176Y014084D01*
X009196Y014108D01*
X009218Y014130D01*
X009244Y014149D01*
X009271Y014165D01*
X009300Y014177D01*
X009330Y014186D01*
X009361Y014191D01*
X009393Y014192D01*
X009424Y014189D01*
X009455Y014182D01*
X009485Y014172D01*
X009513Y014158D01*
X009539Y014140D01*
X009563Y014120D01*
X009584Y014096D01*
X009603Y014071D01*
X009618Y014043D01*
X009629Y014014D01*
X009637Y013983D01*
X009641Y013952D01*
X009641Y013920D01*
X009637Y013889D01*
X009629Y013858D01*
X009618Y013829D01*
X009603Y013801D01*
X009584Y013776D01*
X009563Y013752D01*
X009539Y013732D01*
X009513Y013714D01*
X009485Y013700D01*
X009455Y013690D01*
X009424Y013683D01*
X009393Y013680D01*
X009361Y013681D01*
X009330Y013686D01*
X009300Y013695D01*
X009271Y013707D01*
X009244Y013723D01*
X009218Y013742D01*
X009196Y013764D01*
X009176Y013788D01*
X009159Y013815D01*
X009146Y013844D01*
X009137Y013874D01*
X009131Y013905D01*
X009129Y013936D01*
X011885Y013936D02*
X011887Y013967D01*
X011893Y013998D01*
X011902Y014028D01*
X011915Y014057D01*
X011932Y014084D01*
X011952Y014108D01*
X011974Y014130D01*
X012000Y014149D01*
X012027Y014165D01*
X012056Y014177D01*
X012086Y014186D01*
X012117Y014191D01*
X012149Y014192D01*
X012180Y014189D01*
X012211Y014182D01*
X012241Y014172D01*
X012269Y014158D01*
X012295Y014140D01*
X012319Y014120D01*
X012340Y014096D01*
X012359Y014071D01*
X012374Y014043D01*
X012385Y014014D01*
X012393Y013983D01*
X012397Y013952D01*
X012397Y013920D01*
X012393Y013889D01*
X012385Y013858D01*
X012374Y013829D01*
X012359Y013801D01*
X012340Y013776D01*
X012319Y013752D01*
X012295Y013732D01*
X012269Y013714D01*
X012241Y013700D01*
X012211Y013690D01*
X012180Y013683D01*
X012149Y013680D01*
X012117Y013681D01*
X012086Y013686D01*
X012056Y013695D01*
X012027Y013707D01*
X012000Y013723D01*
X011974Y013742D01*
X011952Y013764D01*
X011932Y013788D01*
X011915Y013815D01*
X011902Y013844D01*
X011893Y013874D01*
X011887Y013905D01*
X011885Y013936D01*
M02*
