G75*
G70*
%OFA0B0*%
%FSLAX24Y24*%
%IPPOS*%
%LPD*%
%AMOC8*
5,1,8,0,0,1.08239X$1,22.5*
%
%ADD10C,0.0860*%
%ADD11R,0.0740X0.0740*%
%ADD12C,0.0740*%
%ADD13C,0.2000*%
%ADD14R,0.0512X0.0630*%
%ADD15C,0.0060*%
D10*
X008086Y006542D03*
X008401Y005420D03*
X008401Y007664D03*
X008401Y009074D03*
X008086Y010196D03*
X008401Y011318D03*
X008401Y012814D03*
X008086Y013936D03*
X008401Y015058D03*
X011551Y015275D03*
X011551Y012598D03*
X011551Y011535D03*
X011551Y008857D03*
X011551Y007881D03*
X011551Y005204D03*
D11*
X006922Y007940D03*
D12*
X006922Y009031D03*
X006922Y010121D03*
X006922Y011212D03*
X006922Y012302D03*
X005804Y011755D03*
X005804Y010664D03*
X005804Y009578D03*
X005804Y008487D03*
X008731Y004410D03*
X009731Y004410D03*
X010731Y004410D03*
X010512Y015901D03*
X009512Y015901D03*
D13*
X006363Y005200D03*
X006363Y015042D03*
D14*
X009405Y014772D03*
X010153Y014772D03*
D15*
X010095Y014843D01*
X010095Y015323D01*
X009535Y015883D01*
X009512Y015901D01*
X009375Y014843D02*
X008575Y014843D01*
X008415Y015003D01*
X008401Y015058D01*
X009375Y014843D02*
X009405Y014772D01*
X008086Y013936D02*
X008095Y013883D01*
X008975Y013003D01*
X008975Y011083D01*
X008095Y010203D01*
X008086Y010196D01*
X007855Y009643D02*
X010815Y009643D01*
X011535Y008923D01*
X011551Y008857D01*
X008975Y005643D02*
X008095Y006523D01*
X008086Y006542D01*
X007535Y006283D02*
X007535Y008203D01*
X007775Y008443D01*
X006815Y008443D01*
X006335Y008923D01*
X006335Y011323D01*
X006735Y011723D01*
X007055Y011723D01*
X008095Y012763D01*
X008335Y012763D01*
X008401Y012814D01*
X007455Y010043D02*
X006975Y010043D01*
X006922Y010121D01*
X007455Y010043D02*
X007855Y009643D01*
X008401Y009074D02*
X008335Y009003D01*
X007775Y008443D01*
X008401Y007664D02*
X008415Y007643D01*
X008655Y007403D01*
X008655Y006603D01*
X009695Y005563D01*
X009695Y004443D01*
X009731Y004410D01*
X008975Y005243D02*
X008975Y005643D01*
X008975Y005243D02*
X008735Y005003D01*
X008735Y004443D01*
X008731Y004410D01*
X008401Y005420D02*
X008335Y005483D01*
X007535Y006283D01*
M02*
