G75*
G70*
%OFA0B0*%
%FSLAX24Y24*%
%IPPOS*%
%LPD*%
%AMOC8*
5,1,8,0,0,1.08239X$1,22.5*
%
%ADD10C,0.0860*%
%ADD11R,0.0740X0.0740*%
%ADD12C,0.0740*%
%ADD13C,0.2000*%
%ADD14C,0.0060*%
D10*
X008086Y006542D03*
X008401Y005420D03*
X008401Y007664D03*
X008401Y009074D03*
X008086Y010196D03*
X008401Y011318D03*
X008401Y012814D03*
X008086Y013936D03*
X008401Y015058D03*
X011551Y015275D03*
X011551Y012598D03*
X011551Y011535D03*
X011551Y008857D03*
X011551Y007881D03*
X011551Y005204D03*
D11*
X006922Y007940D03*
D12*
X006922Y009031D03*
X006922Y010121D03*
X006922Y011212D03*
X006922Y012302D03*
X005804Y011755D03*
X005804Y010664D03*
X005804Y009578D03*
X005804Y008487D03*
X008731Y004410D03*
X009731Y004410D03*
X010731Y004410D03*
X010512Y015901D03*
X009512Y015901D03*
D13*
X006363Y005200D03*
X006363Y015042D03*
D14*
X007375Y014043D02*
X007375Y012283D01*
X008335Y011323D01*
X008401Y011318D01*
X008415Y011243D01*
X008415Y010603D01*
X008975Y010043D01*
X008975Y008843D01*
X008415Y008283D01*
X008415Y007723D01*
X008401Y007664D01*
X008015Y007243D02*
X007455Y007803D01*
X007455Y009563D01*
X006975Y009083D01*
X006922Y009031D01*
X007455Y009563D02*
X008015Y010123D01*
X008086Y010196D01*
X007375Y012283D02*
X006975Y012283D01*
X006922Y012302D01*
X007375Y014043D02*
X008335Y015003D01*
X008401Y015058D01*
X010512Y015901D02*
X010575Y015883D01*
X010975Y015883D01*
X011535Y015323D01*
X011551Y015275D01*
X011551Y012598D02*
X011535Y012523D01*
X011535Y011563D01*
X011551Y011535D01*
X011551Y008857D02*
X011535Y008843D01*
X011535Y007883D01*
X011551Y007881D01*
X011535Y005243D02*
X011551Y005204D01*
X011535Y005243D02*
X010735Y004443D01*
X010731Y004410D01*
X008086Y006542D02*
X008015Y006603D01*
X008015Y007243D01*
M02*
