%
M48
M72
T01C0.0400
T02C0.0512
T03C0.1300
%
T01
X6922Y7940
X6922Y9031
X6922Y10121
X6922Y11212
X6922Y12302
X5804Y11755
X5804Y10664
X5804Y9578
X5804Y8487
X8731Y4410
X9731Y4410
X10731Y4410
X10512Y15901
X9512Y15901
T02
X8401Y15058
X8086Y13936
X8401Y12814
X9385Y13936
X11551Y12598
X11551Y11535
X12141Y10196
X11551Y8857
X11551Y7881
X12141Y6542
X11551Y5204
X9385Y6542
X8401Y5420
X8086Y6542
X8401Y7664
X8401Y9074
X8086Y10196
X8401Y11318
X9385Y10196
X12141Y13936
X11551Y15275
T03
X6363Y5200
X6363Y15042
M30
