G75*
G70*
%OFA0B0*%
%FSLAX24Y24*%
%IPPOS*%
%LPD*%
%AMOC8*
5,1,8,0,0,1.08239X$1,22.5*
%
%ADD10C,0.0592*%
%ADD11C,0.0940*%
%ADD12R,0.0820X0.0820*%
%ADD13C,0.0820*%
D10*
X006542Y003809D03*
X010448Y003790D03*
X014306Y003829D03*
X014306Y006585D03*
X010448Y006546D03*
X006542Y006565D03*
X006432Y010522D03*
X010369Y010522D03*
X014306Y010522D03*
X014306Y013278D03*
X010369Y013278D03*
X006432Y013278D03*
D11*
X005094Y012687D03*
X007771Y012687D03*
X009031Y012687D03*
X011708Y012687D03*
X012968Y012687D03*
X015645Y012687D03*
X015428Y009538D03*
X014306Y009223D03*
X013184Y009538D03*
X011491Y009538D03*
X010369Y009223D03*
X009247Y009538D03*
X007554Y009538D03*
X006432Y009223D03*
X005310Y009538D03*
X006542Y007864D03*
X005420Y007549D03*
X007664Y007549D03*
X009326Y007530D03*
X010448Y007845D03*
X011570Y007530D03*
X013184Y007569D03*
X014306Y007884D03*
X015428Y007569D03*
X015645Y004420D03*
X012968Y004420D03*
X011787Y004380D03*
X009109Y004380D03*
X007881Y004400D03*
X005204Y004400D03*
D12*
X016464Y009542D03*
D13*
X016464Y008542D03*
X016464Y007542D03*
X016464Y006542D03*
M02*
