%
M48
M72
T01C0.0400
T02C0.0512
%
T01
X16464Y6542
X16464Y7542
X16464Y8542
X16464Y9542
T02
X6542Y3809
X5204Y4400
X7881Y4400
X9109Y4380
X10448Y3790
X11787Y4380
X12968Y4420
X14306Y3829
X15645Y4420
X14306Y6585
X13184Y7569
X14306Y7884
X15428Y7569
X14306Y9223
X13184Y9538
X14306Y10522
X15428Y9538
X11491Y9538
X10369Y9223
X9247Y9538
X10369Y10522
X7554Y9538
X6432Y9223
X5310Y9538
X6432Y10522
X5094Y12687
X6432Y13278
X7771Y12687
X9031Y12687
X10369Y13278
X11708Y12687
X12968Y12687
X14306Y13278
X15645Y12687
X10448Y7845
X11570Y7530
X10448Y6546
X9326Y7530
X7664Y7549
X6542Y7864
X5420Y7549
X6542Y6565
M30
