G75*
G70*
%OFA0B0*%
%FSLAX24Y24*%
%IPPOS*%
%LPD*%
%AMOC8*
5,1,8,0,0,1.08239X$1,22.5*
%
%ADD10C,0.0000*%
%ADD11C,0.0060*%
D10*
X004714Y003042D02*
X016775Y003042D01*
X016805Y003044D01*
X016835Y003049D01*
X016864Y003058D01*
X016891Y003071D01*
X016917Y003086D01*
X016941Y003105D01*
X016962Y003126D01*
X016981Y003150D01*
X016996Y003176D01*
X017009Y003203D01*
X017018Y003232D01*
X017023Y003262D01*
X017025Y003292D01*
X017025Y013778D01*
X017023Y013808D01*
X017018Y013838D01*
X017009Y013867D01*
X016996Y013894D01*
X016981Y013920D01*
X016962Y013944D01*
X016941Y013965D01*
X016917Y013984D01*
X016891Y013999D01*
X016864Y014012D01*
X016835Y014021D01*
X016805Y014026D01*
X016775Y014028D01*
X004714Y014028D01*
X004684Y014026D01*
X004654Y014021D01*
X004625Y014012D01*
X004598Y013999D01*
X004572Y013984D01*
X004548Y013965D01*
X004527Y013944D01*
X004508Y013920D01*
X004493Y013894D01*
X004480Y013867D01*
X004471Y013838D01*
X004466Y013808D01*
X004464Y013778D01*
X004464Y003292D01*
X004466Y003262D01*
X004471Y003232D01*
X004480Y003203D01*
X004493Y003176D01*
X004508Y003150D01*
X004527Y003126D01*
X004548Y003105D01*
X004572Y003086D01*
X004598Y003071D01*
X004625Y003058D01*
X004654Y003049D01*
X004684Y003044D01*
X004714Y003042D01*
X006286Y003809D02*
X006288Y003840D01*
X006294Y003871D01*
X006303Y003901D01*
X006316Y003930D01*
X006333Y003957D01*
X006353Y003981D01*
X006375Y004003D01*
X006401Y004022D01*
X006428Y004038D01*
X006457Y004050D01*
X006487Y004059D01*
X006518Y004064D01*
X006550Y004065D01*
X006581Y004062D01*
X006612Y004055D01*
X006642Y004045D01*
X006670Y004031D01*
X006696Y004013D01*
X006720Y003993D01*
X006741Y003969D01*
X006760Y003944D01*
X006775Y003916D01*
X006786Y003887D01*
X006794Y003856D01*
X006798Y003825D01*
X006798Y003793D01*
X006794Y003762D01*
X006786Y003731D01*
X006775Y003702D01*
X006760Y003674D01*
X006741Y003649D01*
X006720Y003625D01*
X006696Y003605D01*
X006670Y003587D01*
X006642Y003573D01*
X006612Y003563D01*
X006581Y003556D01*
X006550Y003553D01*
X006518Y003554D01*
X006487Y003559D01*
X006457Y003568D01*
X006428Y003580D01*
X006401Y003596D01*
X006375Y003615D01*
X006353Y003637D01*
X006333Y003661D01*
X006316Y003688D01*
X006303Y003717D01*
X006294Y003747D01*
X006288Y003778D01*
X006286Y003809D01*
X010192Y003790D02*
X010194Y003821D01*
X010200Y003852D01*
X010209Y003882D01*
X010222Y003911D01*
X010239Y003938D01*
X010259Y003962D01*
X010281Y003984D01*
X010307Y004003D01*
X010334Y004019D01*
X010363Y004031D01*
X010393Y004040D01*
X010424Y004045D01*
X010456Y004046D01*
X010487Y004043D01*
X010518Y004036D01*
X010548Y004026D01*
X010576Y004012D01*
X010602Y003994D01*
X010626Y003974D01*
X010647Y003950D01*
X010666Y003925D01*
X010681Y003897D01*
X010692Y003868D01*
X010700Y003837D01*
X010704Y003806D01*
X010704Y003774D01*
X010700Y003743D01*
X010692Y003712D01*
X010681Y003683D01*
X010666Y003655D01*
X010647Y003630D01*
X010626Y003606D01*
X010602Y003586D01*
X010576Y003568D01*
X010548Y003554D01*
X010518Y003544D01*
X010487Y003537D01*
X010456Y003534D01*
X010424Y003535D01*
X010393Y003540D01*
X010363Y003549D01*
X010334Y003561D01*
X010307Y003577D01*
X010281Y003596D01*
X010259Y003618D01*
X010239Y003642D01*
X010222Y003669D01*
X010209Y003698D01*
X010200Y003728D01*
X010194Y003759D01*
X010192Y003790D01*
X014050Y003829D02*
X014052Y003860D01*
X014058Y003891D01*
X014067Y003921D01*
X014080Y003950D01*
X014097Y003977D01*
X014117Y004001D01*
X014139Y004023D01*
X014165Y004042D01*
X014192Y004058D01*
X014221Y004070D01*
X014251Y004079D01*
X014282Y004084D01*
X014314Y004085D01*
X014345Y004082D01*
X014376Y004075D01*
X014406Y004065D01*
X014434Y004051D01*
X014460Y004033D01*
X014484Y004013D01*
X014505Y003989D01*
X014524Y003964D01*
X014539Y003936D01*
X014550Y003907D01*
X014558Y003876D01*
X014562Y003845D01*
X014562Y003813D01*
X014558Y003782D01*
X014550Y003751D01*
X014539Y003722D01*
X014524Y003694D01*
X014505Y003669D01*
X014484Y003645D01*
X014460Y003625D01*
X014434Y003607D01*
X014406Y003593D01*
X014376Y003583D01*
X014345Y003576D01*
X014314Y003573D01*
X014282Y003574D01*
X014251Y003579D01*
X014221Y003588D01*
X014192Y003600D01*
X014165Y003616D01*
X014139Y003635D01*
X014117Y003657D01*
X014097Y003681D01*
X014080Y003708D01*
X014067Y003737D01*
X014058Y003767D01*
X014052Y003798D01*
X014050Y003829D01*
X014050Y006585D02*
X014052Y006616D01*
X014058Y006647D01*
X014067Y006677D01*
X014080Y006706D01*
X014097Y006733D01*
X014117Y006757D01*
X014139Y006779D01*
X014165Y006798D01*
X014192Y006814D01*
X014221Y006826D01*
X014251Y006835D01*
X014282Y006840D01*
X014314Y006841D01*
X014345Y006838D01*
X014376Y006831D01*
X014406Y006821D01*
X014434Y006807D01*
X014460Y006789D01*
X014484Y006769D01*
X014505Y006745D01*
X014524Y006720D01*
X014539Y006692D01*
X014550Y006663D01*
X014558Y006632D01*
X014562Y006601D01*
X014562Y006569D01*
X014558Y006538D01*
X014550Y006507D01*
X014539Y006478D01*
X014524Y006450D01*
X014505Y006425D01*
X014484Y006401D01*
X014460Y006381D01*
X014434Y006363D01*
X014406Y006349D01*
X014376Y006339D01*
X014345Y006332D01*
X014314Y006329D01*
X014282Y006330D01*
X014251Y006335D01*
X014221Y006344D01*
X014192Y006356D01*
X014165Y006372D01*
X014139Y006391D01*
X014117Y006413D01*
X014097Y006437D01*
X014080Y006464D01*
X014067Y006493D01*
X014058Y006523D01*
X014052Y006554D01*
X014050Y006585D01*
X010192Y006546D02*
X010194Y006577D01*
X010200Y006608D01*
X010209Y006638D01*
X010222Y006667D01*
X010239Y006694D01*
X010259Y006718D01*
X010281Y006740D01*
X010307Y006759D01*
X010334Y006775D01*
X010363Y006787D01*
X010393Y006796D01*
X010424Y006801D01*
X010456Y006802D01*
X010487Y006799D01*
X010518Y006792D01*
X010548Y006782D01*
X010576Y006768D01*
X010602Y006750D01*
X010626Y006730D01*
X010647Y006706D01*
X010666Y006681D01*
X010681Y006653D01*
X010692Y006624D01*
X010700Y006593D01*
X010704Y006562D01*
X010704Y006530D01*
X010700Y006499D01*
X010692Y006468D01*
X010681Y006439D01*
X010666Y006411D01*
X010647Y006386D01*
X010626Y006362D01*
X010602Y006342D01*
X010576Y006324D01*
X010548Y006310D01*
X010518Y006300D01*
X010487Y006293D01*
X010456Y006290D01*
X010424Y006291D01*
X010393Y006296D01*
X010363Y006305D01*
X010334Y006317D01*
X010307Y006333D01*
X010281Y006352D01*
X010259Y006374D01*
X010239Y006398D01*
X010222Y006425D01*
X010209Y006454D01*
X010200Y006484D01*
X010194Y006515D01*
X010192Y006546D01*
X006286Y006565D02*
X006288Y006596D01*
X006294Y006627D01*
X006303Y006657D01*
X006316Y006686D01*
X006333Y006713D01*
X006353Y006737D01*
X006375Y006759D01*
X006401Y006778D01*
X006428Y006794D01*
X006457Y006806D01*
X006487Y006815D01*
X006518Y006820D01*
X006550Y006821D01*
X006581Y006818D01*
X006612Y006811D01*
X006642Y006801D01*
X006670Y006787D01*
X006696Y006769D01*
X006720Y006749D01*
X006741Y006725D01*
X006760Y006700D01*
X006775Y006672D01*
X006786Y006643D01*
X006794Y006612D01*
X006798Y006581D01*
X006798Y006549D01*
X006794Y006518D01*
X006786Y006487D01*
X006775Y006458D01*
X006760Y006430D01*
X006741Y006405D01*
X006720Y006381D01*
X006696Y006361D01*
X006670Y006343D01*
X006642Y006329D01*
X006612Y006319D01*
X006581Y006312D01*
X006550Y006309D01*
X006518Y006310D01*
X006487Y006315D01*
X006457Y006324D01*
X006428Y006336D01*
X006401Y006352D01*
X006375Y006371D01*
X006353Y006393D01*
X006333Y006417D01*
X006316Y006444D01*
X006303Y006473D01*
X006294Y006503D01*
X006288Y006534D01*
X006286Y006565D01*
X006176Y010522D02*
X006178Y010553D01*
X006184Y010584D01*
X006193Y010614D01*
X006206Y010643D01*
X006223Y010670D01*
X006243Y010694D01*
X006265Y010716D01*
X006291Y010735D01*
X006318Y010751D01*
X006347Y010763D01*
X006377Y010772D01*
X006408Y010777D01*
X006440Y010778D01*
X006471Y010775D01*
X006502Y010768D01*
X006532Y010758D01*
X006560Y010744D01*
X006586Y010726D01*
X006610Y010706D01*
X006631Y010682D01*
X006650Y010657D01*
X006665Y010629D01*
X006676Y010600D01*
X006684Y010569D01*
X006688Y010538D01*
X006688Y010506D01*
X006684Y010475D01*
X006676Y010444D01*
X006665Y010415D01*
X006650Y010387D01*
X006631Y010362D01*
X006610Y010338D01*
X006586Y010318D01*
X006560Y010300D01*
X006532Y010286D01*
X006502Y010276D01*
X006471Y010269D01*
X006440Y010266D01*
X006408Y010267D01*
X006377Y010272D01*
X006347Y010281D01*
X006318Y010293D01*
X006291Y010309D01*
X006265Y010328D01*
X006243Y010350D01*
X006223Y010374D01*
X006206Y010401D01*
X006193Y010430D01*
X006184Y010460D01*
X006178Y010491D01*
X006176Y010522D01*
X010113Y010522D02*
X010115Y010553D01*
X010121Y010584D01*
X010130Y010614D01*
X010143Y010643D01*
X010160Y010670D01*
X010180Y010694D01*
X010202Y010716D01*
X010228Y010735D01*
X010255Y010751D01*
X010284Y010763D01*
X010314Y010772D01*
X010345Y010777D01*
X010377Y010778D01*
X010408Y010775D01*
X010439Y010768D01*
X010469Y010758D01*
X010497Y010744D01*
X010523Y010726D01*
X010547Y010706D01*
X010568Y010682D01*
X010587Y010657D01*
X010602Y010629D01*
X010613Y010600D01*
X010621Y010569D01*
X010625Y010538D01*
X010625Y010506D01*
X010621Y010475D01*
X010613Y010444D01*
X010602Y010415D01*
X010587Y010387D01*
X010568Y010362D01*
X010547Y010338D01*
X010523Y010318D01*
X010497Y010300D01*
X010469Y010286D01*
X010439Y010276D01*
X010408Y010269D01*
X010377Y010266D01*
X010345Y010267D01*
X010314Y010272D01*
X010284Y010281D01*
X010255Y010293D01*
X010228Y010309D01*
X010202Y010328D01*
X010180Y010350D01*
X010160Y010374D01*
X010143Y010401D01*
X010130Y010430D01*
X010121Y010460D01*
X010115Y010491D01*
X010113Y010522D01*
X014050Y010522D02*
X014052Y010553D01*
X014058Y010584D01*
X014067Y010614D01*
X014080Y010643D01*
X014097Y010670D01*
X014117Y010694D01*
X014139Y010716D01*
X014165Y010735D01*
X014192Y010751D01*
X014221Y010763D01*
X014251Y010772D01*
X014282Y010777D01*
X014314Y010778D01*
X014345Y010775D01*
X014376Y010768D01*
X014406Y010758D01*
X014434Y010744D01*
X014460Y010726D01*
X014484Y010706D01*
X014505Y010682D01*
X014524Y010657D01*
X014539Y010629D01*
X014550Y010600D01*
X014558Y010569D01*
X014562Y010538D01*
X014562Y010506D01*
X014558Y010475D01*
X014550Y010444D01*
X014539Y010415D01*
X014524Y010387D01*
X014505Y010362D01*
X014484Y010338D01*
X014460Y010318D01*
X014434Y010300D01*
X014406Y010286D01*
X014376Y010276D01*
X014345Y010269D01*
X014314Y010266D01*
X014282Y010267D01*
X014251Y010272D01*
X014221Y010281D01*
X014192Y010293D01*
X014165Y010309D01*
X014139Y010328D01*
X014117Y010350D01*
X014097Y010374D01*
X014080Y010401D01*
X014067Y010430D01*
X014058Y010460D01*
X014052Y010491D01*
X014050Y010522D01*
X014050Y013278D02*
X014052Y013309D01*
X014058Y013340D01*
X014067Y013370D01*
X014080Y013399D01*
X014097Y013426D01*
X014117Y013450D01*
X014139Y013472D01*
X014165Y013491D01*
X014192Y013507D01*
X014221Y013519D01*
X014251Y013528D01*
X014282Y013533D01*
X014314Y013534D01*
X014345Y013531D01*
X014376Y013524D01*
X014406Y013514D01*
X014434Y013500D01*
X014460Y013482D01*
X014484Y013462D01*
X014505Y013438D01*
X014524Y013413D01*
X014539Y013385D01*
X014550Y013356D01*
X014558Y013325D01*
X014562Y013294D01*
X014562Y013262D01*
X014558Y013231D01*
X014550Y013200D01*
X014539Y013171D01*
X014524Y013143D01*
X014505Y013118D01*
X014484Y013094D01*
X014460Y013074D01*
X014434Y013056D01*
X014406Y013042D01*
X014376Y013032D01*
X014345Y013025D01*
X014314Y013022D01*
X014282Y013023D01*
X014251Y013028D01*
X014221Y013037D01*
X014192Y013049D01*
X014165Y013065D01*
X014139Y013084D01*
X014117Y013106D01*
X014097Y013130D01*
X014080Y013157D01*
X014067Y013186D01*
X014058Y013216D01*
X014052Y013247D01*
X014050Y013278D01*
X010113Y013278D02*
X010115Y013309D01*
X010121Y013340D01*
X010130Y013370D01*
X010143Y013399D01*
X010160Y013426D01*
X010180Y013450D01*
X010202Y013472D01*
X010228Y013491D01*
X010255Y013507D01*
X010284Y013519D01*
X010314Y013528D01*
X010345Y013533D01*
X010377Y013534D01*
X010408Y013531D01*
X010439Y013524D01*
X010469Y013514D01*
X010497Y013500D01*
X010523Y013482D01*
X010547Y013462D01*
X010568Y013438D01*
X010587Y013413D01*
X010602Y013385D01*
X010613Y013356D01*
X010621Y013325D01*
X010625Y013294D01*
X010625Y013262D01*
X010621Y013231D01*
X010613Y013200D01*
X010602Y013171D01*
X010587Y013143D01*
X010568Y013118D01*
X010547Y013094D01*
X010523Y013074D01*
X010497Y013056D01*
X010469Y013042D01*
X010439Y013032D01*
X010408Y013025D01*
X010377Y013022D01*
X010345Y013023D01*
X010314Y013028D01*
X010284Y013037D01*
X010255Y013049D01*
X010228Y013065D01*
X010202Y013084D01*
X010180Y013106D01*
X010160Y013130D01*
X010143Y013157D01*
X010130Y013186D01*
X010121Y013216D01*
X010115Y013247D01*
X010113Y013278D01*
X006176Y013278D02*
X006178Y013309D01*
X006184Y013340D01*
X006193Y013370D01*
X006206Y013399D01*
X006223Y013426D01*
X006243Y013450D01*
X006265Y013472D01*
X006291Y013491D01*
X006318Y013507D01*
X006347Y013519D01*
X006377Y013528D01*
X006408Y013533D01*
X006440Y013534D01*
X006471Y013531D01*
X006502Y013524D01*
X006532Y013514D01*
X006560Y013500D01*
X006586Y013482D01*
X006610Y013462D01*
X006631Y013438D01*
X006650Y013413D01*
X006665Y013385D01*
X006676Y013356D01*
X006684Y013325D01*
X006688Y013294D01*
X006688Y013262D01*
X006684Y013231D01*
X006676Y013200D01*
X006665Y013171D01*
X006650Y013143D01*
X006631Y013118D01*
X006610Y013094D01*
X006586Y013074D01*
X006560Y013056D01*
X006532Y013042D01*
X006502Y013032D01*
X006471Y013025D01*
X006440Y013022D01*
X006408Y013023D01*
X006377Y013028D01*
X006347Y013037D01*
X006318Y013049D01*
X006291Y013065D01*
X006265Y013084D01*
X006243Y013106D01*
X006223Y013130D01*
X006206Y013157D01*
X006193Y013186D01*
X006184Y013216D01*
X006178Y013247D01*
X006176Y013278D01*
D11*
X008330Y011842D02*
X008330Y011202D01*
X008650Y011202D01*
X008757Y011309D01*
X008757Y011522D01*
X008650Y011629D01*
X008330Y011629D01*
X008113Y011522D02*
X008006Y011629D01*
X007792Y011629D01*
X007686Y011522D01*
X007686Y011415D01*
X008113Y011415D01*
X008113Y011309D02*
X008113Y011522D01*
X008113Y011309D02*
X008006Y011202D01*
X007792Y011202D01*
X007468Y011202D02*
X007468Y011629D01*
X007361Y011629D01*
X007255Y011522D01*
X007148Y011629D01*
X007041Y011522D01*
X007041Y011202D01*
X007255Y011202D02*
X007255Y011522D01*
X006824Y011629D02*
X006824Y011309D01*
X006717Y011202D01*
X006397Y011202D01*
X006397Y011095D02*
X006503Y010988D01*
X006610Y010988D01*
X006397Y011095D02*
X006397Y011629D01*
X008975Y011522D02*
X008975Y011202D01*
X009295Y011202D01*
X009402Y011309D01*
X009295Y011415D01*
X008975Y011415D01*
X008975Y011522D02*
X009081Y011629D01*
X009295Y011629D01*
X009619Y011629D02*
X009940Y011629D01*
X010046Y011522D01*
X010046Y011309D01*
X009940Y011202D01*
X009619Y011202D01*
X010264Y011202D02*
X010264Y011629D01*
X010477Y011842D01*
X010691Y011629D01*
X010691Y011202D01*
X010691Y011522D02*
X010264Y011522D01*
X011553Y011629D02*
X011873Y011629D01*
X011980Y011522D01*
X011873Y011415D01*
X011660Y011415D01*
X011553Y011309D01*
X011660Y011202D01*
X011980Y011202D01*
X012197Y011202D02*
X012197Y011629D01*
X012624Y011629D02*
X012624Y011309D01*
X012518Y011202D01*
X012197Y011202D01*
X012842Y011309D02*
X012842Y011522D01*
X012949Y011629D01*
X013269Y011629D01*
X013269Y011842D02*
X013269Y011202D01*
X012949Y011202D01*
X012842Y011309D01*
X013487Y011202D02*
X013487Y011842D01*
X013914Y011842D02*
X013487Y011202D01*
X013914Y011202D02*
X013914Y011842D01*
X014131Y011629D02*
X014131Y011202D01*
X014558Y011202D02*
X014558Y011629D01*
X014345Y011842D01*
X014131Y011629D01*
X014131Y011522D02*
X014558Y011522D01*
X014776Y011309D02*
X014882Y011202D01*
X015096Y011202D01*
X015203Y011309D01*
X015203Y011736D01*
X015096Y011842D01*
X014882Y011842D01*
X014776Y011736D01*
X013436Y006004D02*
X013543Y005898D01*
X013543Y005470D01*
X013436Y005364D01*
X013223Y005364D01*
X013116Y005470D01*
X012898Y005364D02*
X012898Y005791D01*
X012685Y006004D01*
X012471Y005791D01*
X012471Y005364D01*
X012254Y005364D02*
X012254Y006004D01*
X011827Y005364D01*
X011827Y006004D01*
X012471Y005684D02*
X012898Y005684D01*
X013116Y005898D02*
X013223Y006004D01*
X013436Y006004D01*
X010965Y006004D02*
X010965Y005364D01*
X010965Y005684D02*
X010858Y005791D01*
X010644Y005791D01*
X010538Y005684D01*
X010538Y005364D01*
X010320Y005470D02*
X010213Y005364D01*
X009893Y005364D01*
X009893Y005791D01*
X009676Y005791D02*
X009355Y005791D01*
X009249Y005684D01*
X009249Y005470D01*
X009355Y005364D01*
X009676Y005364D01*
X009676Y006004D01*
X010320Y005791D02*
X010320Y005470D01*
X008386Y005791D02*
X008173Y005364D01*
X007959Y005791D01*
X007742Y005791D02*
X007528Y006004D01*
X007528Y005364D01*
X007315Y005364D02*
X007742Y005364D01*
M02*
