G75*
G70*
%OFA0B0*%
%FSLAX24Y24*%
%IPPOS*%
%LPD*%
%AMOC8*
5,1,8,0,0,1.08239X$1,22.5*
%
%ADD10C,0.0860*%
%ADD11R,0.0740X0.0740*%
%ADD12C,0.0740*%
%ADD13C,0.0060*%
D10*
X005204Y004400D03*
X007881Y004400D03*
X009109Y004380D03*
X011787Y004380D03*
X012968Y004420D03*
X015645Y004420D03*
X015428Y007569D03*
X014306Y007884D03*
X013184Y007569D03*
X011570Y007530D03*
X010448Y007845D03*
X009326Y007530D03*
X007664Y007549D03*
X006542Y007864D03*
X005420Y007549D03*
X006432Y009223D03*
X005310Y009538D03*
X007554Y009538D03*
X009247Y009538D03*
X010369Y009223D03*
X011491Y009538D03*
X013184Y009538D03*
X014306Y009223D03*
X015428Y009538D03*
X015645Y012687D03*
X012968Y012687D03*
X011708Y012687D03*
X009031Y012687D03*
X007771Y012687D03*
X005094Y012687D03*
D11*
X016464Y009542D03*
D12*
X016464Y008542D03*
X016464Y007542D03*
X016464Y006542D03*
D13*
X016464Y006562D01*
X015504Y007522D01*
X015428Y007569D01*
X015424Y007602D01*
X014384Y008642D01*
X012304Y008642D01*
X011584Y007922D01*
X011584Y007602D01*
X011570Y007530D01*
X010448Y007845D02*
X010384Y007922D01*
X010384Y009202D01*
X010369Y009223D01*
X010304Y009282D01*
X009504Y010082D01*
X013504Y010082D01*
X014304Y009282D01*
X014306Y009223D01*
X014864Y009202D02*
X016464Y007602D01*
X016464Y007542D01*
X016464Y008542D02*
X016464Y008562D01*
X015504Y009522D01*
X015428Y009538D01*
X014864Y009762D02*
X014864Y009202D01*
X014864Y009762D02*
X015584Y010482D01*
X015584Y012642D01*
X015645Y012687D01*
X012968Y012687D02*
X012944Y012722D01*
X011744Y012722D01*
X011708Y012687D01*
X009031Y012687D02*
X009024Y012722D01*
X007824Y012722D01*
X007771Y012687D01*
X007264Y010082D02*
X006464Y009282D01*
X006432Y009223D01*
X006464Y009202D01*
X006464Y007922D01*
X006542Y007864D01*
X006144Y007522D02*
X006384Y007282D01*
X006704Y007282D01*
X007104Y007682D01*
X007104Y007762D01*
X008224Y008882D01*
X009264Y007842D01*
X009264Y007602D01*
X009326Y007530D01*
X008224Y008882D02*
X007584Y009522D01*
X007554Y009538D01*
X007264Y010082D02*
X009504Y010082D01*
X012304Y008642D02*
X013184Y009522D01*
X013184Y009538D01*
X006144Y007522D02*
X005424Y007522D01*
X005420Y007549D01*
X007881Y004400D02*
X007904Y004402D01*
X009104Y004402D01*
X009109Y004380D01*
X011787Y004380D02*
X011824Y004402D01*
X012944Y004402D01*
X012968Y004420D01*
M02*
