G75*
G70*
%OFA0B0*%
%FSLAX24Y24*%
%IPPOS*%
%LPD*%
%AMOC8*
5,1,8,0,0,1.08239X$1,22.5*
%
%ADD10C,0.0860*%
%ADD11R,0.0740X0.0740*%
%ADD12C,0.0740*%
%ADD13C,0.0060*%
D10*
X005204Y004400D03*
X007881Y004400D03*
X009109Y004380D03*
X011787Y004380D03*
X012968Y004420D03*
X015645Y004420D03*
X015428Y007569D03*
X014306Y007884D03*
X013184Y007569D03*
X011570Y007530D03*
X010448Y007845D03*
X009326Y007530D03*
X007664Y007549D03*
X006542Y007864D03*
X005420Y007549D03*
X006432Y009223D03*
X005310Y009538D03*
X007554Y009538D03*
X009247Y009538D03*
X010369Y009223D03*
X011491Y009538D03*
X013184Y009538D03*
X014306Y009223D03*
X015428Y009538D03*
X015645Y012687D03*
X012968Y012687D03*
X011708Y012687D03*
X009031Y012687D03*
X007771Y012687D03*
X005094Y012687D03*
D11*
X016464Y009542D03*
D12*
X016464Y008542D03*
X016464Y007542D03*
X016464Y006542D03*
D13*
X016464Y007202D02*
X015664Y006402D01*
X015664Y004482D01*
X015645Y004420D01*
X016464Y007202D02*
X016464Y007542D01*
X014624Y007922D02*
X014384Y007922D01*
X014306Y007884D01*
X014304Y007922D01*
X014304Y009202D01*
X014306Y009223D01*
X014704Y009602D02*
X014224Y010082D01*
X012864Y010082D01*
X011904Y009122D01*
X013184Y007842D01*
X013184Y007602D01*
X013184Y007569D01*
X014624Y007922D02*
X016224Y009522D01*
X016464Y009522D01*
X016464Y009542D01*
X015428Y009538D02*
X015424Y009602D01*
X014704Y009602D01*
X011904Y009122D02*
X011504Y009522D01*
X011491Y009538D01*
X011424Y009602D01*
X010944Y010082D01*
X009024Y010082D01*
X008544Y009602D01*
X007584Y009602D01*
X007554Y009538D01*
X008064Y008402D02*
X006464Y008402D01*
X005344Y009522D01*
X005310Y009538D01*
X007744Y008082D02*
X008064Y008402D01*
X009184Y009522D01*
X009247Y009538D01*
X009264Y009522D01*
X010384Y008402D01*
X010704Y008402D01*
X011504Y007602D01*
X011570Y007530D01*
X007744Y007602D02*
X007664Y007549D01*
X007744Y007602D02*
X007744Y008082D01*
M02*
