G75*
G70*
%OFA0B0*%
%FSLAX24Y24*%
%IPPOS*%
%LPD*%
%AMOC8*
5,1,8,0,0,1.08239X$1,22.5*
%
%ADD10C,0.0000*%
%ADD11C,0.0050*%
%ADD12C,0.0020*%
%ADD13C,0.0080*%
D10*
X004714Y003042D02*
X016775Y003042D01*
X016805Y003044D01*
X016835Y003049D01*
X016864Y003058D01*
X016891Y003071D01*
X016917Y003086D01*
X016941Y003105D01*
X016962Y003126D01*
X016981Y003150D01*
X016996Y003176D01*
X017009Y003203D01*
X017018Y003232D01*
X017023Y003262D01*
X017025Y003292D01*
X017025Y013778D01*
X017023Y013808D01*
X017018Y013838D01*
X017009Y013867D01*
X016996Y013894D01*
X016981Y013920D01*
X016962Y013944D01*
X016941Y013965D01*
X016917Y013984D01*
X016891Y013999D01*
X016864Y014012D01*
X016835Y014021D01*
X016805Y014026D01*
X016775Y014028D01*
X004714Y014028D01*
X004684Y014026D01*
X004654Y014021D01*
X004625Y014012D01*
X004598Y013999D01*
X004572Y013984D01*
X004548Y013965D01*
X004527Y013944D01*
X004508Y013920D01*
X004493Y013894D01*
X004480Y013867D01*
X004471Y013838D01*
X004466Y013808D01*
X004464Y013778D01*
X004464Y003292D01*
X004466Y003262D01*
X004471Y003232D01*
X004480Y003203D01*
X004493Y003176D01*
X004508Y003150D01*
X004527Y003126D01*
X004548Y003105D01*
X004572Y003086D01*
X004598Y003071D01*
X004625Y003058D01*
X004654Y003049D01*
X004684Y003044D01*
X004714Y003042D01*
X006286Y003809D02*
X006288Y003840D01*
X006294Y003871D01*
X006303Y003901D01*
X006316Y003930D01*
X006333Y003957D01*
X006353Y003981D01*
X006375Y004003D01*
X006401Y004022D01*
X006428Y004038D01*
X006457Y004050D01*
X006487Y004059D01*
X006518Y004064D01*
X006550Y004065D01*
X006581Y004062D01*
X006612Y004055D01*
X006642Y004045D01*
X006670Y004031D01*
X006696Y004013D01*
X006720Y003993D01*
X006741Y003969D01*
X006760Y003944D01*
X006775Y003916D01*
X006786Y003887D01*
X006794Y003856D01*
X006798Y003825D01*
X006798Y003793D01*
X006794Y003762D01*
X006786Y003731D01*
X006775Y003702D01*
X006760Y003674D01*
X006741Y003649D01*
X006720Y003625D01*
X006696Y003605D01*
X006670Y003587D01*
X006642Y003573D01*
X006612Y003563D01*
X006581Y003556D01*
X006550Y003553D01*
X006518Y003554D01*
X006487Y003559D01*
X006457Y003568D01*
X006428Y003580D01*
X006401Y003596D01*
X006375Y003615D01*
X006353Y003637D01*
X006333Y003661D01*
X006316Y003688D01*
X006303Y003717D01*
X006294Y003747D01*
X006288Y003778D01*
X006286Y003809D01*
X010192Y003790D02*
X010194Y003821D01*
X010200Y003852D01*
X010209Y003882D01*
X010222Y003911D01*
X010239Y003938D01*
X010259Y003962D01*
X010281Y003984D01*
X010307Y004003D01*
X010334Y004019D01*
X010363Y004031D01*
X010393Y004040D01*
X010424Y004045D01*
X010456Y004046D01*
X010487Y004043D01*
X010518Y004036D01*
X010548Y004026D01*
X010576Y004012D01*
X010602Y003994D01*
X010626Y003974D01*
X010647Y003950D01*
X010666Y003925D01*
X010681Y003897D01*
X010692Y003868D01*
X010700Y003837D01*
X010704Y003806D01*
X010704Y003774D01*
X010700Y003743D01*
X010692Y003712D01*
X010681Y003683D01*
X010666Y003655D01*
X010647Y003630D01*
X010626Y003606D01*
X010602Y003586D01*
X010576Y003568D01*
X010548Y003554D01*
X010518Y003544D01*
X010487Y003537D01*
X010456Y003534D01*
X010424Y003535D01*
X010393Y003540D01*
X010363Y003549D01*
X010334Y003561D01*
X010307Y003577D01*
X010281Y003596D01*
X010259Y003618D01*
X010239Y003642D01*
X010222Y003669D01*
X010209Y003698D01*
X010200Y003728D01*
X010194Y003759D01*
X010192Y003790D01*
X014050Y003829D02*
X014052Y003860D01*
X014058Y003891D01*
X014067Y003921D01*
X014080Y003950D01*
X014097Y003977D01*
X014117Y004001D01*
X014139Y004023D01*
X014165Y004042D01*
X014192Y004058D01*
X014221Y004070D01*
X014251Y004079D01*
X014282Y004084D01*
X014314Y004085D01*
X014345Y004082D01*
X014376Y004075D01*
X014406Y004065D01*
X014434Y004051D01*
X014460Y004033D01*
X014484Y004013D01*
X014505Y003989D01*
X014524Y003964D01*
X014539Y003936D01*
X014550Y003907D01*
X014558Y003876D01*
X014562Y003845D01*
X014562Y003813D01*
X014558Y003782D01*
X014550Y003751D01*
X014539Y003722D01*
X014524Y003694D01*
X014505Y003669D01*
X014484Y003645D01*
X014460Y003625D01*
X014434Y003607D01*
X014406Y003593D01*
X014376Y003583D01*
X014345Y003576D01*
X014314Y003573D01*
X014282Y003574D01*
X014251Y003579D01*
X014221Y003588D01*
X014192Y003600D01*
X014165Y003616D01*
X014139Y003635D01*
X014117Y003657D01*
X014097Y003681D01*
X014080Y003708D01*
X014067Y003737D01*
X014058Y003767D01*
X014052Y003798D01*
X014050Y003829D01*
X014050Y006585D02*
X014052Y006616D01*
X014058Y006647D01*
X014067Y006677D01*
X014080Y006706D01*
X014097Y006733D01*
X014117Y006757D01*
X014139Y006779D01*
X014165Y006798D01*
X014192Y006814D01*
X014221Y006826D01*
X014251Y006835D01*
X014282Y006840D01*
X014314Y006841D01*
X014345Y006838D01*
X014376Y006831D01*
X014406Y006821D01*
X014434Y006807D01*
X014460Y006789D01*
X014484Y006769D01*
X014505Y006745D01*
X014524Y006720D01*
X014539Y006692D01*
X014550Y006663D01*
X014558Y006632D01*
X014562Y006601D01*
X014562Y006569D01*
X014558Y006538D01*
X014550Y006507D01*
X014539Y006478D01*
X014524Y006450D01*
X014505Y006425D01*
X014484Y006401D01*
X014460Y006381D01*
X014434Y006363D01*
X014406Y006349D01*
X014376Y006339D01*
X014345Y006332D01*
X014314Y006329D01*
X014282Y006330D01*
X014251Y006335D01*
X014221Y006344D01*
X014192Y006356D01*
X014165Y006372D01*
X014139Y006391D01*
X014117Y006413D01*
X014097Y006437D01*
X014080Y006464D01*
X014067Y006493D01*
X014058Y006523D01*
X014052Y006554D01*
X014050Y006585D01*
X010192Y006546D02*
X010194Y006577D01*
X010200Y006608D01*
X010209Y006638D01*
X010222Y006667D01*
X010239Y006694D01*
X010259Y006718D01*
X010281Y006740D01*
X010307Y006759D01*
X010334Y006775D01*
X010363Y006787D01*
X010393Y006796D01*
X010424Y006801D01*
X010456Y006802D01*
X010487Y006799D01*
X010518Y006792D01*
X010548Y006782D01*
X010576Y006768D01*
X010602Y006750D01*
X010626Y006730D01*
X010647Y006706D01*
X010666Y006681D01*
X010681Y006653D01*
X010692Y006624D01*
X010700Y006593D01*
X010704Y006562D01*
X010704Y006530D01*
X010700Y006499D01*
X010692Y006468D01*
X010681Y006439D01*
X010666Y006411D01*
X010647Y006386D01*
X010626Y006362D01*
X010602Y006342D01*
X010576Y006324D01*
X010548Y006310D01*
X010518Y006300D01*
X010487Y006293D01*
X010456Y006290D01*
X010424Y006291D01*
X010393Y006296D01*
X010363Y006305D01*
X010334Y006317D01*
X010307Y006333D01*
X010281Y006352D01*
X010259Y006374D01*
X010239Y006398D01*
X010222Y006425D01*
X010209Y006454D01*
X010200Y006484D01*
X010194Y006515D01*
X010192Y006546D01*
X006286Y006565D02*
X006288Y006596D01*
X006294Y006627D01*
X006303Y006657D01*
X006316Y006686D01*
X006333Y006713D01*
X006353Y006737D01*
X006375Y006759D01*
X006401Y006778D01*
X006428Y006794D01*
X006457Y006806D01*
X006487Y006815D01*
X006518Y006820D01*
X006550Y006821D01*
X006581Y006818D01*
X006612Y006811D01*
X006642Y006801D01*
X006670Y006787D01*
X006696Y006769D01*
X006720Y006749D01*
X006741Y006725D01*
X006760Y006700D01*
X006775Y006672D01*
X006786Y006643D01*
X006794Y006612D01*
X006798Y006581D01*
X006798Y006549D01*
X006794Y006518D01*
X006786Y006487D01*
X006775Y006458D01*
X006760Y006430D01*
X006741Y006405D01*
X006720Y006381D01*
X006696Y006361D01*
X006670Y006343D01*
X006642Y006329D01*
X006612Y006319D01*
X006581Y006312D01*
X006550Y006309D01*
X006518Y006310D01*
X006487Y006315D01*
X006457Y006324D01*
X006428Y006336D01*
X006401Y006352D01*
X006375Y006371D01*
X006353Y006393D01*
X006333Y006417D01*
X006316Y006444D01*
X006303Y006473D01*
X006294Y006503D01*
X006288Y006534D01*
X006286Y006565D01*
X006176Y010522D02*
X006178Y010553D01*
X006184Y010584D01*
X006193Y010614D01*
X006206Y010643D01*
X006223Y010670D01*
X006243Y010694D01*
X006265Y010716D01*
X006291Y010735D01*
X006318Y010751D01*
X006347Y010763D01*
X006377Y010772D01*
X006408Y010777D01*
X006440Y010778D01*
X006471Y010775D01*
X006502Y010768D01*
X006532Y010758D01*
X006560Y010744D01*
X006586Y010726D01*
X006610Y010706D01*
X006631Y010682D01*
X006650Y010657D01*
X006665Y010629D01*
X006676Y010600D01*
X006684Y010569D01*
X006688Y010538D01*
X006688Y010506D01*
X006684Y010475D01*
X006676Y010444D01*
X006665Y010415D01*
X006650Y010387D01*
X006631Y010362D01*
X006610Y010338D01*
X006586Y010318D01*
X006560Y010300D01*
X006532Y010286D01*
X006502Y010276D01*
X006471Y010269D01*
X006440Y010266D01*
X006408Y010267D01*
X006377Y010272D01*
X006347Y010281D01*
X006318Y010293D01*
X006291Y010309D01*
X006265Y010328D01*
X006243Y010350D01*
X006223Y010374D01*
X006206Y010401D01*
X006193Y010430D01*
X006184Y010460D01*
X006178Y010491D01*
X006176Y010522D01*
X010113Y010522D02*
X010115Y010553D01*
X010121Y010584D01*
X010130Y010614D01*
X010143Y010643D01*
X010160Y010670D01*
X010180Y010694D01*
X010202Y010716D01*
X010228Y010735D01*
X010255Y010751D01*
X010284Y010763D01*
X010314Y010772D01*
X010345Y010777D01*
X010377Y010778D01*
X010408Y010775D01*
X010439Y010768D01*
X010469Y010758D01*
X010497Y010744D01*
X010523Y010726D01*
X010547Y010706D01*
X010568Y010682D01*
X010587Y010657D01*
X010602Y010629D01*
X010613Y010600D01*
X010621Y010569D01*
X010625Y010538D01*
X010625Y010506D01*
X010621Y010475D01*
X010613Y010444D01*
X010602Y010415D01*
X010587Y010387D01*
X010568Y010362D01*
X010547Y010338D01*
X010523Y010318D01*
X010497Y010300D01*
X010469Y010286D01*
X010439Y010276D01*
X010408Y010269D01*
X010377Y010266D01*
X010345Y010267D01*
X010314Y010272D01*
X010284Y010281D01*
X010255Y010293D01*
X010228Y010309D01*
X010202Y010328D01*
X010180Y010350D01*
X010160Y010374D01*
X010143Y010401D01*
X010130Y010430D01*
X010121Y010460D01*
X010115Y010491D01*
X010113Y010522D01*
X014050Y010522D02*
X014052Y010553D01*
X014058Y010584D01*
X014067Y010614D01*
X014080Y010643D01*
X014097Y010670D01*
X014117Y010694D01*
X014139Y010716D01*
X014165Y010735D01*
X014192Y010751D01*
X014221Y010763D01*
X014251Y010772D01*
X014282Y010777D01*
X014314Y010778D01*
X014345Y010775D01*
X014376Y010768D01*
X014406Y010758D01*
X014434Y010744D01*
X014460Y010726D01*
X014484Y010706D01*
X014505Y010682D01*
X014524Y010657D01*
X014539Y010629D01*
X014550Y010600D01*
X014558Y010569D01*
X014562Y010538D01*
X014562Y010506D01*
X014558Y010475D01*
X014550Y010444D01*
X014539Y010415D01*
X014524Y010387D01*
X014505Y010362D01*
X014484Y010338D01*
X014460Y010318D01*
X014434Y010300D01*
X014406Y010286D01*
X014376Y010276D01*
X014345Y010269D01*
X014314Y010266D01*
X014282Y010267D01*
X014251Y010272D01*
X014221Y010281D01*
X014192Y010293D01*
X014165Y010309D01*
X014139Y010328D01*
X014117Y010350D01*
X014097Y010374D01*
X014080Y010401D01*
X014067Y010430D01*
X014058Y010460D01*
X014052Y010491D01*
X014050Y010522D01*
X014050Y013278D02*
X014052Y013309D01*
X014058Y013340D01*
X014067Y013370D01*
X014080Y013399D01*
X014097Y013426D01*
X014117Y013450D01*
X014139Y013472D01*
X014165Y013491D01*
X014192Y013507D01*
X014221Y013519D01*
X014251Y013528D01*
X014282Y013533D01*
X014314Y013534D01*
X014345Y013531D01*
X014376Y013524D01*
X014406Y013514D01*
X014434Y013500D01*
X014460Y013482D01*
X014484Y013462D01*
X014505Y013438D01*
X014524Y013413D01*
X014539Y013385D01*
X014550Y013356D01*
X014558Y013325D01*
X014562Y013294D01*
X014562Y013262D01*
X014558Y013231D01*
X014550Y013200D01*
X014539Y013171D01*
X014524Y013143D01*
X014505Y013118D01*
X014484Y013094D01*
X014460Y013074D01*
X014434Y013056D01*
X014406Y013042D01*
X014376Y013032D01*
X014345Y013025D01*
X014314Y013022D01*
X014282Y013023D01*
X014251Y013028D01*
X014221Y013037D01*
X014192Y013049D01*
X014165Y013065D01*
X014139Y013084D01*
X014117Y013106D01*
X014097Y013130D01*
X014080Y013157D01*
X014067Y013186D01*
X014058Y013216D01*
X014052Y013247D01*
X014050Y013278D01*
X010113Y013278D02*
X010115Y013309D01*
X010121Y013340D01*
X010130Y013370D01*
X010143Y013399D01*
X010160Y013426D01*
X010180Y013450D01*
X010202Y013472D01*
X010228Y013491D01*
X010255Y013507D01*
X010284Y013519D01*
X010314Y013528D01*
X010345Y013533D01*
X010377Y013534D01*
X010408Y013531D01*
X010439Y013524D01*
X010469Y013514D01*
X010497Y013500D01*
X010523Y013482D01*
X010547Y013462D01*
X010568Y013438D01*
X010587Y013413D01*
X010602Y013385D01*
X010613Y013356D01*
X010621Y013325D01*
X010625Y013294D01*
X010625Y013262D01*
X010621Y013231D01*
X010613Y013200D01*
X010602Y013171D01*
X010587Y013143D01*
X010568Y013118D01*
X010547Y013094D01*
X010523Y013074D01*
X010497Y013056D01*
X010469Y013042D01*
X010439Y013032D01*
X010408Y013025D01*
X010377Y013022D01*
X010345Y013023D01*
X010314Y013028D01*
X010284Y013037D01*
X010255Y013049D01*
X010228Y013065D01*
X010202Y013084D01*
X010180Y013106D01*
X010160Y013130D01*
X010143Y013157D01*
X010130Y013186D01*
X010121Y013216D01*
X010115Y013247D01*
X010113Y013278D01*
X006176Y013278D02*
X006178Y013309D01*
X006184Y013340D01*
X006193Y013370D01*
X006206Y013399D01*
X006223Y013426D01*
X006243Y013450D01*
X006265Y013472D01*
X006291Y013491D01*
X006318Y013507D01*
X006347Y013519D01*
X006377Y013528D01*
X006408Y013533D01*
X006440Y013534D01*
X006471Y013531D01*
X006502Y013524D01*
X006532Y013514D01*
X006560Y013500D01*
X006586Y013482D01*
X006610Y013462D01*
X006631Y013438D01*
X006650Y013413D01*
X006665Y013385D01*
X006676Y013356D01*
X006684Y013325D01*
X006688Y013294D01*
X006688Y013262D01*
X006684Y013231D01*
X006676Y013200D01*
X006665Y013171D01*
X006650Y013143D01*
X006631Y013118D01*
X006610Y013094D01*
X006586Y013074D01*
X006560Y013056D01*
X006532Y013042D01*
X006502Y013032D01*
X006471Y013025D01*
X006440Y013022D01*
X006408Y013023D01*
X006377Y013028D01*
X006347Y013037D01*
X006318Y013049D01*
X006291Y013065D01*
X006265Y013084D01*
X006243Y013106D01*
X006223Y013130D01*
X006206Y013157D01*
X006193Y013186D01*
X006184Y013216D01*
X006178Y013247D01*
X006176Y013278D01*
D11*
X005054Y013002D02*
X005054Y014065D01*
X007810Y014065D01*
X007810Y013081D01*
X008991Y013002D02*
X008991Y014065D01*
X011747Y014065D01*
X011747Y013081D01*
X012928Y013002D02*
X012928Y014065D01*
X015684Y014065D01*
X015684Y013081D01*
X015684Y012254D02*
X015684Y009853D01*
X016208Y010366D02*
X016208Y010516D01*
X016208Y010441D02*
X016584Y010441D01*
X016659Y010366D01*
X016659Y010290D01*
X016584Y010215D01*
X016659Y010676D02*
X016208Y010676D01*
X016208Y010901D01*
X016283Y010976D01*
X016433Y010976D01*
X016509Y010901D01*
X016509Y010676D01*
X016659Y011136D02*
X016659Y011436D01*
X016659Y011286D02*
X016208Y011286D01*
X016358Y011136D01*
X015094Y009144D02*
X013598Y009144D01*
X012928Y009892D02*
X012928Y012294D01*
X011747Y012254D02*
X011747Y009853D01*
X011157Y009144D02*
X009661Y009144D01*
X008991Y009892D02*
X008991Y012294D01*
X007810Y012254D02*
X007810Y009853D01*
X007220Y009144D02*
X005724Y009144D01*
X005054Y009892D02*
X005054Y012294D01*
X005755Y007943D02*
X007251Y007943D01*
X007920Y007195D02*
X007920Y004794D01*
X009070Y004813D02*
X009070Y007215D01*
X009661Y007923D02*
X011157Y007923D01*
X011826Y007175D02*
X011826Y004774D01*
X011826Y004065D02*
X011826Y003002D01*
X009070Y003002D01*
X009070Y003986D01*
X007920Y004085D02*
X007920Y003022D01*
X005164Y003022D01*
X005164Y004006D01*
X005164Y004833D02*
X005164Y007235D01*
X012928Y007254D02*
X012928Y004853D01*
X012928Y004026D02*
X012928Y003042D01*
X015684Y003042D01*
X015684Y004105D01*
X015684Y004813D02*
X015684Y007215D01*
X015015Y007963D02*
X013519Y007963D01*
D12*
X014238Y007198D02*
X014201Y007162D01*
X014201Y007088D01*
X014238Y007052D01*
X014274Y007052D01*
X014311Y007088D01*
X014311Y007162D01*
X014348Y007198D01*
X014384Y007198D01*
X014421Y007162D01*
X014421Y007088D01*
X014384Y007052D01*
X015326Y007044D02*
X015326Y006898D01*
X015326Y006971D02*
X015546Y006971D01*
X015546Y006823D02*
X015473Y006750D01*
X015473Y006787D02*
X015473Y006677D01*
X015546Y006677D02*
X015326Y006677D01*
X015326Y006787D01*
X015363Y006823D01*
X015436Y006823D01*
X015473Y006787D01*
X013296Y006809D02*
X013259Y006773D01*
X013296Y006809D02*
X013296Y006883D01*
X013259Y006919D01*
X013223Y006919D01*
X013186Y006883D01*
X013186Y006809D01*
X013149Y006773D01*
X013113Y006773D01*
X013076Y006809D01*
X013076Y006883D01*
X013113Y006919D01*
X013113Y006698D02*
X013186Y006698D01*
X013223Y006662D01*
X013223Y006552D01*
X013223Y006625D02*
X013296Y006698D01*
X013296Y006552D02*
X013076Y006552D01*
X013076Y006662D01*
X013113Y006698D01*
X011688Y006637D02*
X011468Y006637D01*
X011468Y006747D01*
X011504Y006784D01*
X011578Y006784D01*
X011615Y006747D01*
X011615Y006637D01*
X011615Y006711D02*
X011688Y006784D01*
X011688Y006932D02*
X011468Y006932D01*
X011468Y007005D02*
X011468Y006858D01*
X010563Y007049D02*
X010526Y007012D01*
X010563Y007049D02*
X010563Y007122D01*
X010526Y007159D01*
X010490Y007159D01*
X010453Y007122D01*
X010453Y007049D01*
X010416Y007012D01*
X010379Y007012D01*
X010343Y007049D01*
X010343Y007122D01*
X010379Y007159D01*
X009438Y006843D02*
X009438Y006770D01*
X009401Y006733D01*
X009328Y006770D02*
X009328Y006843D01*
X009365Y006880D01*
X009401Y006880D01*
X009438Y006843D01*
X009328Y006770D02*
X009291Y006733D01*
X009254Y006733D01*
X009218Y006770D01*
X009218Y006843D01*
X009254Y006880D01*
X009254Y006659D02*
X009328Y006659D01*
X009365Y006622D01*
X009365Y006512D01*
X009438Y006512D02*
X009218Y006512D01*
X009218Y006622D01*
X009254Y006659D01*
X009365Y006586D02*
X009438Y006659D01*
X007782Y006657D02*
X007562Y006657D01*
X007562Y006767D01*
X007599Y006804D01*
X007672Y006804D01*
X007709Y006767D01*
X007709Y006657D01*
X007709Y006730D02*
X007782Y006804D01*
X007782Y006951D02*
X007562Y006951D01*
X007562Y006878D02*
X007562Y007025D01*
X006657Y007069D02*
X006621Y007032D01*
X006657Y007069D02*
X006657Y007142D01*
X006621Y007179D01*
X006584Y007179D01*
X006547Y007142D01*
X006547Y007069D01*
X006511Y007032D01*
X006474Y007032D01*
X006437Y007069D01*
X006437Y007142D01*
X006474Y007179D01*
X005532Y006863D02*
X005532Y006790D01*
X005496Y006753D01*
X005422Y006790D02*
X005422Y006863D01*
X005459Y006900D01*
X005496Y006900D01*
X005532Y006863D01*
X005422Y006790D02*
X005386Y006753D01*
X005349Y006753D01*
X005312Y006790D01*
X005312Y006863D01*
X005349Y006900D01*
X005349Y006679D02*
X005422Y006679D01*
X005459Y006642D01*
X005459Y006532D01*
X005459Y006605D02*
X005532Y006679D01*
X005532Y006532D02*
X005312Y006532D01*
X005312Y006642D01*
X005349Y006679D01*
X007562Y003804D02*
X007562Y003657D01*
X007562Y003730D02*
X007782Y003730D01*
X009208Y003688D02*
X009208Y003541D01*
X009208Y003615D02*
X009428Y003615D01*
X011468Y003637D02*
X011468Y003784D01*
X011468Y003711D02*
X011688Y003711D01*
X013066Y003727D02*
X013066Y003581D01*
X013066Y003654D02*
X013286Y003654D01*
X015326Y003677D02*
X015326Y003823D01*
X015326Y003750D02*
X015546Y003750D01*
X005522Y003634D02*
X005302Y003634D01*
X005302Y003561D02*
X005302Y003708D01*
X006354Y009854D02*
X006390Y009854D01*
X006427Y009891D01*
X006427Y009964D01*
X006464Y010001D01*
X006500Y010001D01*
X006537Y009964D01*
X006537Y009891D01*
X006500Y009854D01*
X006354Y009854D02*
X006317Y009891D01*
X006317Y009964D01*
X006354Y010001D01*
X005412Y010008D02*
X005192Y010008D01*
X005192Y010118D01*
X005229Y010155D01*
X005302Y010155D01*
X005339Y010118D01*
X005339Y010008D01*
X005339Y010082D02*
X005412Y010155D01*
X005412Y010303D02*
X005192Y010303D01*
X005192Y010376D02*
X005192Y010229D01*
X007442Y010243D02*
X007442Y010133D01*
X007662Y010133D01*
X007589Y010133D02*
X007589Y010243D01*
X007552Y010280D01*
X007479Y010280D01*
X007442Y010243D01*
X007479Y010354D02*
X007515Y010354D01*
X007552Y010391D01*
X007552Y010464D01*
X007589Y010501D01*
X007625Y010501D01*
X007662Y010464D01*
X007662Y010391D01*
X007625Y010354D01*
X007662Y010280D02*
X007589Y010207D01*
X007479Y010354D02*
X007442Y010391D01*
X007442Y010464D01*
X007479Y010501D01*
X009129Y010376D02*
X009129Y010229D01*
X009129Y010303D02*
X009349Y010303D01*
X009349Y010155D02*
X009276Y010082D01*
X009276Y010118D02*
X009276Y010008D01*
X009349Y010008D02*
X009129Y010008D01*
X009129Y010118D01*
X009166Y010155D01*
X009239Y010155D01*
X009276Y010118D01*
X010254Y009964D02*
X010254Y009891D01*
X010291Y009854D01*
X010327Y009854D01*
X010364Y009891D01*
X010364Y009964D01*
X010401Y010001D01*
X010437Y010001D01*
X010474Y009964D01*
X010474Y009891D01*
X010437Y009854D01*
X010291Y010001D02*
X010254Y009964D01*
X011379Y010133D02*
X011379Y010243D01*
X011416Y010280D01*
X011489Y010280D01*
X011526Y010243D01*
X011526Y010133D01*
X011599Y010133D02*
X011379Y010133D01*
X011526Y010207D02*
X011599Y010280D01*
X011562Y010354D02*
X011599Y010391D01*
X011599Y010464D01*
X011562Y010501D01*
X011526Y010501D01*
X011489Y010464D01*
X011489Y010391D01*
X011452Y010354D01*
X011416Y010354D01*
X011379Y010391D01*
X011379Y010464D01*
X011416Y010501D01*
X013066Y010376D02*
X013066Y010229D01*
X013066Y010303D02*
X013286Y010303D01*
X013286Y010155D02*
X013213Y010082D01*
X013213Y010118D02*
X013213Y010008D01*
X013286Y010008D02*
X013066Y010008D01*
X013066Y010118D01*
X013103Y010155D01*
X013176Y010155D01*
X013213Y010118D01*
X014191Y009964D02*
X014191Y009891D01*
X014228Y009854D01*
X014264Y009854D01*
X014301Y009891D01*
X014301Y009964D01*
X014338Y010001D01*
X014374Y010001D01*
X014411Y009964D01*
X014411Y009891D01*
X014374Y009854D01*
X014228Y010001D02*
X014191Y009964D01*
X015316Y010133D02*
X015316Y010243D01*
X015353Y010280D01*
X015426Y010280D01*
X015463Y010243D01*
X015463Y010133D01*
X015536Y010133D02*
X015316Y010133D01*
X015463Y010207D02*
X015536Y010280D01*
X015499Y010354D02*
X015536Y010391D01*
X015536Y010464D01*
X015499Y010501D01*
X015463Y010501D01*
X015426Y010464D01*
X015426Y010391D01*
X015389Y010354D01*
X015353Y010354D01*
X015316Y010391D01*
X015316Y010464D01*
X015353Y010501D01*
X013286Y013303D02*
X013066Y013303D01*
X013066Y013376D02*
X013066Y013229D01*
X011609Y013399D02*
X011389Y013399D01*
X011389Y013472D02*
X011389Y013325D01*
X009349Y013303D02*
X009129Y013303D01*
X009129Y013376D02*
X009129Y013229D01*
X007672Y013399D02*
X007452Y013399D01*
X007452Y013472D02*
X007452Y013325D01*
X005412Y013303D02*
X005192Y013303D01*
X005192Y013376D02*
X005192Y013229D01*
X015326Y013325D02*
X015326Y013472D01*
X015326Y013399D02*
X015546Y013399D01*
D13*
X016214Y010042D02*
X015964Y009792D01*
X015964Y009292D01*
X016214Y009042D01*
X015964Y008792D01*
X015964Y008292D01*
X016214Y008042D01*
X015964Y007792D01*
X015964Y007292D01*
X016214Y007042D01*
X015964Y006792D01*
X015964Y006292D01*
X016214Y006042D01*
X016714Y006042D01*
X016964Y006292D01*
X016964Y006792D01*
X016714Y007042D01*
X016964Y007292D01*
X016964Y007792D01*
X016714Y008042D01*
X016964Y008292D01*
X016964Y008792D01*
X016714Y009042D01*
X016964Y009292D01*
X016964Y009792D01*
X016714Y010042D01*
X016214Y010042D01*
M02*
